<?xml version="1.0" encoding="UTF-8"?>
<svg width="58px" height="58px" viewBox="0 0 58 58" version="1.1" xmlns="http://www.w3.org/2000/svg" xmlns:xlink="http://www.w3.org/1999/xlink">
    <!-- Generator: Sketch 50.2 (55047) - http://www.bohemiancoding.com/sketch -->
    <title>Money In Your Bank Account 1</title>
    <desc>Created with Sketch.</desc>
    <defs></defs>
    <g id="Page-1" stroke="none" stroke-width="1" fill="none" fill-rule="evenodd">
        <g id="Main-Icons" transform="translate(-49.000000, -37.000000)" fill="#FFFFFF" fill-rule="nonzero">
            <g id="Money-In-Your-Bank-Account-1" transform="translate(49.000000, 37.000000)">
                <g id="Group" opacity="0.42">
                    <path d="M29.0205078,57.8881836 C13.2709961,57.8881836 0.4580078,45.0751953 0.4580078,29.3256836 C0.4580078,13.5761719 13.2709961,0.7631836 29.0205078,0.7631836 C44.7700195,0.7631836 57.5830078,13.5761719 57.5830078,29.3256836 C57.5830078,45.0751953 44.7700195,57.8881836 29.0205078,57.8881836 Z M29.0205078,1.2631836 C13.546875,1.2631836 0.9580078,13.8520508 0.9580078,29.3256836 C0.9580078,44.7993164 13.546875,57.3881836 29.0205078,57.3881836 C44.4941406,57.3881836 57.0830078,44.7993164 57.0830078,29.3256836 C57.0830078,13.8520508 44.4941406,1.2631836 29.0205078,1.2631836 Z" id="Shape"></path>
                </g>
                <g id="Group" transform="translate(11.000000, 14.000000)">
                    <g transform="translate(4.000000, 6.000000)" id="Shape">
                        <path d="M25.1108398,17.715332 L2.9301757,17.715332 C1.4902343,17.715332 0.3183593,16.543457 0.3183593,15.1035156 L0.3183593,3.5473633 C0.3183593,2.1074219 1.4902343,0.9355469 2.9301757,0.9355469 L25.1108398,0.9355469 C26.5507812,0.9355469 27.7226562,2.1074219 27.7226562,3.5473633 L27.7226562,15.1035156 C27.7226562,16.543457 26.5507812,17.715332 25.1108398,17.715332 Z M2.9301758,1.6855469 C1.9038086,1.6855469 1.0683594,2.5209961 1.0683594,3.5473633 L1.0683594,15.1035156 C1.0683594,16.1298828 1.9038086,16.965332 2.9301758,16.965332 L25.1108399,16.965332 C26.1372071,16.965332 26.9726563,16.1298828 26.9726563,15.1035156 L26.9726563,3.5473633 C26.9726563,2.5209961 26.1372071,1.6855469 25.1108399,1.6855469 L2.9301758,1.6855469 Z"></path>
                        <path d="M27.1611328,5.2270508 L0.7910156,5.2270508 C0.5839844,5.2270508 0.4160156,5.059082 0.4160156,4.8520508 C0.4160156,4.6450196 0.5839844,4.4770508 0.7910156,4.4770508 L27.1611328,4.4770508 C27.368164,4.4770508 27.5361328,4.6450196 27.5361328,4.8520508 C27.5361328,5.059082 27.3681641,5.2270508 27.1611328,5.2270508 Z"></path>
                        <path d="M27.1611328,8.3955078 L0.8735351,8.3955078 C0.6665039,8.3955078 0.4985351,8.227539 0.4985351,8.0205078 C0.4985351,7.8134766 0.6665039,7.6455078 0.8735351,7.6455078 L27.1611328,7.6455078 C27.368164,7.6455078 27.5361328,7.8134766 27.5361328,8.0205078 C27.5361328,8.227539 27.3681641,8.3955078 27.1611328,8.3955078 Z"></path>
                        <path d="M13.1816406,11.9370117 L3.3027344,11.9370117 C3.0957032,11.9370117 2.9277344,11.7690429 2.9277344,11.5620117 C2.9277344,11.3549805 3.0957032,11.1870117 3.3027344,11.1870117 L13.1816406,11.1870117 C13.3886718,11.1870117 13.5566406,11.3549805 13.5566406,11.5620117 C13.5566406,11.7690429 13.3886719,11.9370117 13.1816406,11.9370117 Z"></path>
                        <path d="M10.0131836,13.8012695 L3.3027344,13.8012695 C3.0957032,13.8012695 2.9277344,13.6333007 2.9277344,13.4262695 C2.9277344,13.2192383 3.0957032,13.0512695 3.3027344,13.0512695 L10.0131836,13.0512695 C10.2202148,13.0512695 10.3881836,13.2192383 10.3881836,13.4262695 C10.3881836,13.6333007 10.2202148,13.8012695 10.0131836,13.8012695 Z"></path>
                        <path d="M14.1137695,13.8012695 L11.5043945,13.8012695 C11.2973633,13.8012695 11.1293945,13.6333007 11.1293945,13.4262695 C11.1293945,13.2192383 11.2973633,13.0512695 11.5043945,13.0512695 L14.1137695,13.0512695 C14.3208007,13.0512695 14.4887695,13.2192383 14.4887695,13.4262695 C14.4887695,13.6333007 14.3208008,13.8012695 14.1137695,13.8012695 Z"></path>
                    </g>
                    <g id="Shape">
                        <g>
                            <path d="M1.0834961,6.984375 C0.8764649,6.984375 0.7084961,6.8164062 0.7084961,6.609375 L0.7084961,0.0375977 L7.2802734,0.0375977 C7.4873046,0.0375977 7.6552734,0.2055665 7.6552734,0.4125977 C7.6552734,0.6196289 7.4873046,0.7875977 7.2802734,0.7875977 L1.4584961,0.7875977 L1.4584961,6.609375 C1.4584961,6.8164062 1.2905273,6.984375 1.0834961,6.984375 Z"></path>
                            <path d="M34.9575195,6.984375 C34.7504883,6.984375 34.5825195,6.8164062 34.5825195,6.609375 L34.5825195,0.7875977 L28.7612304,0.7875977 C28.5541992,0.7875977 28.3862304,0.6196289 28.3862304,0.4125977 C28.3862304,0.2055665 28.5541992,0.0375977 28.7612304,0.0375977 L35.3325195,0.0375977 L35.3325195,6.609375 C35.3325195,6.8164062 35.1645508,6.984375 34.9575195,6.984375 Z"></path>
                        </g>
                        <g transform="translate(0.000000, 23.000000)">
                            <path d="M35.3325195,7.6132812 L28.7612304,7.6132812 C28.5541992,7.6132812 28.3862304,7.4453124 28.3862304,7.2382812 C28.3862304,7.03125 28.5541992,6.8632812 28.7612304,6.8632812 L34.5825195,6.8632812 L34.5825195,1.0419921 C34.5825195,0.8349609 34.7504883,0.6669921 34.9575195,0.6669921 C35.1645507,0.6669921 35.3325195,0.8349609 35.3325195,1.0419921 L35.3325195,7.6132812 Z"></path>
                            <path d="M7.2802734,7.6132812 L0.7084961,7.6132812 L0.7084961,1.0419921 C0.7084961,0.8349609 0.8764649,0.6669921 1.0834961,0.6669921 C1.2905273,0.6669921 1.4584961,0.8349609 1.4584961,1.0419921 L1.4584961,6.8632812 L7.2802734,6.8632812 C7.4873046,6.8632812 7.6552734,7.03125 7.6552734,7.2382812 C7.6552734,7.4453124 7.4873047,7.6132812 7.2802734,7.6132812 Z"></path>
                        </g>
                    </g>
                </g>
            </g>
        </g>
    </g>
</svg>