<svg width="26" height="26" viewBox="0 0 26 26" xmlns="http://www.w3.org/2000/svg"><title>Artboard</title><g fill="none" fill-rule="evenodd"><path d="M14.756 3.219l9.63 17.657a2 2 0 0 1-1.755 2.957H3.369a2 2 0 0 1-1.756-2.957l9.631-17.657a2 2 0 0 1 3.512 0z" stroke="#FA755A" stroke-width="2"/><path d="M13.607 16.655l-1.09.238S12 11.213 12 10.647c0-.567.053-.643.42-.643h1.37c.018 0 .3-.08.3.479 0 .561-.483 6.172-.483 6.172zm-1.103 3.48a.405.405 0 0 1-.406-.408v-1.295c0-.226.176-.407.406-.407h1.102c.223 0 .405.18.405.407v1.295a.403.403 0 0 1-.406.408h-1.103.002z" fill="#FA755A"/></g></svg>
