<?xml version="1.0" encoding="UTF-8"?>
<svg width="59px" height="58px" viewBox="0 0 59 58" version="1.1" xmlns="http://www.w3.org/2000/svg" xmlns:xlink="http://www.w3.org/1999/xlink">
    <!-- Generator: Sketch 50.2 (55047) - http://www.bohemiancoding.com/sketch -->
    <title>Money In Your Bank Account 2</title>
    <desc>Created with Sketch.</desc>
    <defs></defs>
    <g id="Page-1" stroke="none" stroke-width="1" fill="none" fill-rule="evenodd">
        <g id="Main-Icons" transform="translate(-140.000000, -37.000000)" fill="#FFFFFF" fill-rule="nonzero">
            <g id="Money-In-Your-Bank-Account-2" transform="translate(140.000000, 37.000000)">
                <g id="Group" opacity="0.42">
                    <path d="M29.4824219,57.8881836 C13.7333985,57.8881836 0.9199219,45.0751953 0.9199219,29.3256836 C0.9199219,13.5761719 13.7333985,0.7631836 29.4824219,0.7631836 C45.2314453,0.7631836 58.0449219,13.5761719 58.0449219,29.3256836 C58.0449219,45.0751953 45.2314453,57.8881836 29.4824219,57.8881836 Z M29.4824219,1.2631836 C14.0087891,1.2631836 1.4199219,13.8520508 1.4199219,29.3256836 C1.4199219,44.7993164 14.0087891,57.3881836 29.4824219,57.3881836 C44.9560547,57.3881836 57.5449219,44.7993164 57.5449219,29.3256836 C57.5449219,13.8520508 44.9560547,1.2631836 29.4824219,1.2631836 Z" id="Shape"></path>
                </g>
                <g id="Group" transform="translate(11.000000, 8.000000)">
                    <g transform="translate(4.000000, 12.000000)" id="Shape">
                        <path d="M16.7861328,17.6503906 L12.1777344,17.6503906 L12.1777344,0.1049804 L16.7861328,0.1049804 L16.7861328,17.6503906 Z M12.9277344,16.9003906 L16.0361328,16.9003906 L16.0361328,0.8549804 L12.9277344,0.8549804 L12.9277344,16.9003906 Z"></path>
                        <g>
                            <path d="M5.5859375,17.6503906 L0.9775391,17.6503906 L0.9775391,0.1049804 L5.5859375,0.1049804 L5.5859375,17.6503906 Z M1.7275391,16.9003906 L4.8359375,16.9003906 L4.8359375,0.8549804 L1.7275391,0.8549804 L1.7275391,16.9003906 Z"></path>
                            <path d="M27.9873047,17.6503906 L23.3789063,17.6503906 L23.3789063,0.1049804 L27.9873047,0.1049804 L27.9873047,17.6503906 Z M24.1289062,16.9003906 L27.2373046,16.9003906 L27.2373046,0.8549804 L24.1289062,0.8549804 L24.1289062,16.9003906 Z"></path>
                        </g>
                    </g>
                    <path d="M33.8623047,12.8549805 L3.1025391,12.8549805 L3.1025391,9.6840821 L33.8623047,9.6840821 L33.8623047,12.8549805 Z M3.8525391,12.1049805 L33.1123047,12.1049805 L33.1123047,10.4340821 L3.8525391,10.4340821 L3.8525391,12.1049805 Z" id="Shape"></path>
                    <path d="M36.7392578,34.8847656 L0.2255859,34.8847656 L0.2255859,31.7138672 L36.7392578,31.7138672 L36.7392578,34.8847656 Z M0.9755859,34.1347656 L35.9892578,34.1347656 L35.9892578,32.4638672 L0.9755859,32.4638672 L0.9755859,34.1347656 Z" id="Shape"></path>
                    <path d="M33.8623047,32.4638672 L3.1025391,32.4638672 L3.1025391,28.9003906 L33.8623047,28.9003906 L33.8623047,32.4638672 Z M3.8525391,31.7138672 L33.1123047,31.7138672 L33.1123047,29.6503906 L3.8525391,29.6503906 L3.8525391,31.7138672 Z" id="Shape"></path>
                    <path d="M35.0917969,10.434082 L1.8730469,10.434082 L1.8730469,7.5825195 L18.4824219,0.0395507 L35.0917969,7.5825195 L35.0917969,10.434082 Z M2.6230469,9.684082 L34.3417969,9.684082 L34.3417969,8.0659179 L18.4824219,0.8632812 L2.6230469,8.0659179 L2.6230469,9.684082 Z" id="Shape"></path>
                </g>
                <path d="M29.4824219,16.6264648 C27.9511719,16.6264648 26.7050781,15.380371 26.7050781,13.849121 C26.7050781,12.317871 27.9511719,11.0722655 29.4824219,11.0722655 C31.0136719,11.0722655 32.2597657,12.317871 32.2597657,13.849121 C32.2597657,15.380371 31.0136719,16.6264648 29.4824219,16.6264648 Z M29.4824219,11.8222656 C28.3642578,11.8222656 27.4550781,12.7314453 27.4550781,13.8491211 C27.4550781,14.9667969 28.3642578,15.8764649 29.4824219,15.8764649 C30.600586,15.8764649 31.5097657,14.9667969 31.5097657,13.8491211 C31.5097657,12.7314453 30.6005859,11.8222656 29.4824219,11.8222656 Z" id="Shape"></path>
            </g>
        </g>
    </g>
</svg>