<svg xmlns="http://www.w3.org/2000/svg" viewBox="0 0 48 48">
    <g fill="none" fill-rule="evenodd">
        <g>
            <path fill="#E5A03E" d="M26.7 39.45a16.04 16.04 0 0 1-18.57 1.48L.68 43.4c-.52.18-.8-.1-.63-.63l2.49-7.45A16.11 16.11 0 0 1 15.48 11 18.63 18.63 0 0 0 26.7 39.45z"></path>
            <path fill="#FDD760" d="M44.95 29.35a16.11 16.11 0 1 0-5.6 5.6l7.46 2.49c.52.17.8-.11.63-.63l-2.49-7.46z"></path>
            <path id="Dots" fill="#E5A03E" d="M24.79 23.58a1.79 1.79 0 1 1 0-3.58 1.79 1.79 0 0 1 0 3.58zm6 0a1.79 1.79 0 1 1 0-3.58 1.79 1.79 0 0 1 0 3.58zm6 0a1.79 1.79 0 1 1 0-3.58 1.79 1.79 0 0 1 0 3.58z"></path>
        </g>
    </g>
</svg>